<svg xmlns="http://www.w3.org/2000/svg" viewBox="0 0 512 512">
  <circle cx="256" cy="256" r="240" fill="#f8fafc" stroke="#e2e8f0" stroke-width="10"/>
  
  <path d="M144 160h-32c-17.67 0-32 14.33-32 32v128c0 17.67 14.33 32 32 32h32c17.67 0 32-14.33 32-32V192c0-17.67-14.33-32-32-32zm256 0h-32c-17.67 0-32 14.33-32 32v128c0 17.67 14.33 32 32 32h32c17.67 0 32-14.33 32-32V192c0-17.67-14.33-32-32-32z" fill="#1e40af"/>
  <rect x="176" y="232" width="160" height="48" rx="8" fill="#1e40af"/>

  <path d="M360 136l-85.5 85.5-42.5-42.5-92 92" fill="none" stroke="#ea580c" stroke-width="40" stroke-linecap="round" stroke-linejoin="round"/>
  <path d="M360 136v64m0-64h-64" fill="none" stroke="#ea580c" stroke-width="40" stroke-linecap="round" stroke-linejoin="round"/>

  <circle cx="140" cy="271" r="12" fill="white"/>
  <circle cx="232" cy="179" r="12" fill="white"/>
  <circle cx="360" cy="136" r="12" fill="#ea580c"/>
</svg>